<?xml version="1.0" encoding="UTF-8"?>
<svg id="Layer_2" data-name="Layer 2" xmlns="http://www.w3.org/2000/svg" viewBox="0 0 121.9 122.03">
  <defs>
    <style>
      .cls-1 {
        opacity: .03;
      }

      .cls-1, .cls-2, .cls-3 {
        isolation: isolate;
        stroke: #000;
        stroke-miterlimit: 10;
        stroke-width: .75px;
      }

      .cls-2 {
        opacity: .11;
      }

      .cls-3 {
        opacity: .69;
      }
    </style>
  </defs>
  <g id="Layer_2-2" data-name="Layer 2">
    <g>
      <g>
        <line class="cls-2" x1="117.25" y1="59.67" x2="119.45" y2="65.79"/>
        <line class="cls-2" x1="117.25" y1="59.67" x2="111.37" y2="70.45"/>
        <line class="cls-2" x1="117.25" y1="59.67" x2="113.08" y2="90.05"/>
        <line class="cls-2" x1="117.25" y1="59.67" x2="64.81" y2="106.47"/>
        <line class="cls-2" x1="119.45" y1="65.79" x2="111.37" y2="70.45"/>
        <line class="cls-2" x1="119.45" y1="65.79" x2="107.69" y2="74.86"/>
        <line class="cls-2" x1="119.45" y1="65.79" x2="100.58" y2="88.82"/>
        <line class="cls-2" x1="119.45" y1="65.79" x2="59.42" y2="111.86"/>
        <line class="cls-2" x1="111.37" y1="70.45" x2="107.69" y2="74.86"/>
        <line class="cls-2" x1="111.37" y1="70.45" x2="110.63" y2="81.96"/>
        <line class="cls-2" x1="111.37" y1="70.45" x2="95.44" y2="91.03"/>
        <line class="cls-2" x1="111.37" y1="70.45" x2="52.56" y2="119.21"/>
        <line class="cls-2" x1="107.69" y1="74.86" x2="110.63" y2="81.96"/>
        <line class="cls-2" x1="107.69" y1="74.86" x2="113.08" y2="90.05"/>
        <line class="cls-2" x1="107.69" y1="74.86" x2="101.56" y2="105.98"/>
        <line class="cls-2" x1="107.69" y1="74.86" x2="49.38" y2="105.98"/>
        <line class="cls-2" x1="110.63" y1="81.96" x2="113.08" y2="90.05"/>
        <line class="cls-2" x1="110.63" y1="81.96" x2="100.58" y2="88.82"/>
        <line class="cls-2" x1="110.63" y1="81.96" x2="92.74" y2="104.51"/>
        <line class="cls-2" x1="110.63" y1="81.96" x2="45.7" y2="101.81"/>
        <line class="cls-2" x1="113.08" y1="90.05" x2="100.58" y2="88.82"/>
        <line class="cls-2" x1="113.08" y1="90.05" x2="95.44" y2="91.03"/>
        <line class="cls-2" x1="113.08" y1="90.05" x2="83.19" y2="98.87"/>
        <line class="cls-2" x1="113.08" y1="90.05" x2="34.19" y2="112.84"/>
        <line class="cls-2" x1="100.58" y1="88.82" x2="95.44" y2="91.03"/>
        <line class="cls-2" x1="100.58" y1="88.82" x2="101.56" y2="105.98"/>
        <line class="cls-2" x1="100.58" y1="88.82" x2="82.21" y2="109.41"/>
        <line class="cls-2" x1="100.58" y1="88.82" x2="31.74" y2="104.75"/>
        <line class="cls-2" x1="95.44" y1="91.03" x2="101.56" y2="105.98"/>
        <line class="cls-2" x1="95.44" y1="91.03" x2="92.74" y2="104.51"/>
        <line class="cls-2" x1="95.44" y1="91.03" x2="77.55" y2="114.55"/>
        <line class="cls-2" x1="95.44" y1="91.03" x2="32.96" y2="94.21"/>
        <line class="cls-2" x1="101.56" y1="105.98" x2="92.74" y2="104.51"/>
        <line class="cls-2" x1="101.56" y1="105.98" x2="83.19" y2="98.87"/>
        <line class="cls-2" x1="101.56" y1="105.98" x2="70.69" y2="110.88"/>
        <line class="cls-2" x1="101.56" y1="105.98" x2="24.39" y2="95.68"/>
        <line class="cls-2" x1="92.74" y1="104.51" x2="83.19" y2="98.87"/>
        <line class="cls-2" x1="92.74" y1="104.51" x2="82.21" y2="109.41"/>
        <line class="cls-2" x1="92.74" y1="104.51" x2="64.81" y2="106.47"/>
        <line class="cls-2" x1="92.74" y1="104.51" x2="17.28" y2="93.97"/>
        <line class="cls-2" x1="83.19" y1="98.87" x2="82.21" y2="109.41"/>
        <line class="cls-2" x1="83.19" y1="98.87" x2="77.55" y2="114.55"/>
        <line class="cls-2" x1="83.19" y1="98.87" x2="59.42" y2="111.86"/>
        <line class="cls-2" x1="83.19" y1="98.87" x2="16.3" y2="87.35"/>
        <line class="cls-2" x1="82.21" y1="109.41" x2="77.55" y2="114.55"/>
        <line class="cls-2" x1="82.21" y1="109.41" x2="70.69" y2="110.88"/>
        <line class="cls-2" x1="82.21" y1="109.41" x2="52.56" y2="119.21"/>
        <line class="cls-2" x1="82.21" y1="109.41" x2="20.47" y2="79.02"/>
        <line class="cls-2" x1="77.55" y1="114.55" x2="70.69" y2="110.88"/>
        <line class="cls-2" x1="77.55" y1="114.55" x2="64.81" y2="106.47"/>
        <line class="cls-2" x1="77.55" y1="114.55" x2="49.38" y2="105.98"/>
        <line class="cls-2" x1="77.55" y1="114.55" x2="13.61" y2="76.08"/>
        <line class="cls-2" x1="70.69" y1="110.88" x2="64.81" y2="106.47"/>
        <line class="cls-2" x1="70.69" y1="110.88" x2="59.42" y2="111.86"/>
        <line class="cls-2" x1="70.69" y1="110.88" x2="45.7" y2="101.81"/>
        <line class="cls-2" x1="70.69" y1="110.88" x2="2.58" y2="72.9"/>
        <line class="cls-2" x1="64.81" y1="106.47" x2="59.42" y2="111.86"/>
        <line class="cls-2" x1="64.81" y1="106.47" x2="52.56" y2="119.21"/>
        <line class="cls-2" x1="64.81" y1="106.47" x2="34.19" y2="112.84"/>
        <line class="cls-2" x1="64.81" y1="106.47" x2="14.34" y2="64.81"/>
        <line class="cls-2" x1="59.42" y1="111.86" x2="52.56" y2="119.21"/>
        <line class="cls-2" x1="59.42" y1="111.86" x2="49.38" y2="105.98"/>
        <line class="cls-2" x1="59.42" y1="111.86" x2="31.74" y2="104.75"/>
        <line class="cls-2" x1="59.42" y1="111.86" x2="17.28" y2="59.67"/>
        <line class="cls-2" x1="52.56" y1="119.21" x2="49.38" y2="105.98"/>
        <line class="cls-2" x1="52.56" y1="119.21" x2="45.7" y2="101.81"/>
        <line class="cls-2" x1="52.56" y1="119.21" x2="32.96" y2="94.21"/>
        <line class="cls-2" x1="52.56" y1="119.21" x2="3.32" y2="53.3"/>
        <line class="cls-2" x1="49.38" y1="105.98" x2="45.7" y2="101.81"/>
        <line class="cls-2" x1="49.38" y1="105.98" x2="34.19" y2="112.84"/>
        <line class="cls-2" x1="49.38" y1="105.98" x2="24.39" y2="95.68"/>
        <line class="cls-2" x1="49.38" y1="105.98" x2="8.95" y2="47.91"/>
        <line class="cls-2" x1="45.7" y1="101.81" x2="34.19" y2="112.84"/>
        <line class="cls-2" x1="45.7" y1="101.81" x2="31.74" y2="104.75"/>
        <line class="cls-2" x1="45.7" y1="101.81" x2="17.28" y2="93.97"/>
        <line class="cls-2" x1="45.7" y1="101.81" x2="18.26" y2="44.72"/>
        <line class="cls-2" x1="34.19" y1="112.84" x2="31.74" y2="104.75"/>
        <line class="cls-2" x1="34.19" y1="112.84" x2="32.96" y2="94.21"/>
        <line class="cls-2" x1="34.19" y1="112.84" x2="16.3" y2="87.35"/>
        <line class="cls-2" x1="34.19" y1="112.84" x2="16.06" y2="38.35"/>
        <line class="cls-2" x1="31.74" y1="104.75" x2="32.96" y2="94.21"/>
        <line class="cls-2" x1="31.74" y1="104.75" x2="24.39" y2="95.68"/>
        <line class="cls-2" x1="31.74" y1="104.75" x2="20.47" y2="79.02"/>
        <line class="cls-2" x1="31.74" y1="104.75" x2="14.1" y2="30.51"/>
        <line class="cls-2" x1="32.96" y1="94.21" x2="24.39" y2="95.68"/>
        <line class="cls-2" x1="33.76" y1="92.31" x2="18.76" y2="92.06"/>
        <line class="cls-2" x1="32.96" y1="94.21" x2="13.61" y2="76.08"/>
        <line class="cls-2" x1="32.96" y1="94.21" x2="18.26" y2="26.1"/>
        <line class="cls-2" x1="24.39" y1="95.68" x2="17.28" y2="93.97"/>
        <line class="cls-2" x1="24.39" y1="95.68" x2="16.3" y2="87.35"/>
        <line class="cls-2" x1="24.39" y1="95.68" x2="2.58" y2="72.9"/>
        <line class="cls-2" x1="24.39" y1="95.68" x2="29.29" y2="28.31"/>
        <line class="cls-2" x1="17.28" y1="93.97" x2="16.3" y2="87.35"/>
        <line class="cls-2" x1="17.28" y1="93.97" x2="20.47" y2="79.02"/>
        <line class="cls-2" x1="17.28" y1="93.97" x2="14.34" y2="64.81"/>
        <line class="cls-2" x1="17.28" y1="93.97" x2="29.53" y2="20.96"/>
        <line class="cls-2" x1="16.3" y1="87.35" x2="20.47" y2="79.02"/>
        <line class="cls-2" x1="16.3" y1="87.35" x2="13.61" y2="76.08"/>
        <line class="cls-2" x1="16.3" y1="87.35" x2="17.28" y2="59.67"/>
        <line class="cls-2" x1="16.3" y1="87.35" x2="27.82" y2="8.71"/>
        <line class="cls-2" x1="20.47" y1="79.02" x2="13.61" y2="76.08"/>
        <line class="cls-2" x1="20.47" y1="79.02" x2="2.58" y2="72.9"/>
        <line class="cls-2" x1="20.47" y1="79.02" x2="3.32" y2="53.3"/>
        <line class="cls-2" x1="20.47" y1="79.02" x2="39.58" y2="16.79"/>
        <line class="cls-2" x1="13.61" y1="76.08" x2="2.58" y2="72.9"/>
        <line class="cls-2" x1="13.61" y1="76.08" x2="14.34" y2="64.81"/>
        <line class="cls-2" x1="13.61" y1="76.08" x2="8.95" y2="47.91"/>
        <line class="cls-2" x1="13.61" y1="76.08" x2="45.7" y2="17.53"/>
        <line class="cls-2" x1="2.58" y1="72.9" x2="14.34" y2="64.81"/>
        <line class="cls-2" x1="2.58" y1="72.9" x2="17.28" y2="59.67"/>
        <line class="cls-2" x1="2.58" y1="72.9" x2="18.26" y2="44.72"/>
        <line class="cls-2" x1="2.58" y1="72.9" x2="46.68" y2="3.32"/>
        <line class="cls-2" x1="14.34" y1="64.81" x2="17.28" y2="59.67"/>
        <line class="cls-2" x1="14.34" y1="64.81" x2="3.32" y2="53.3"/>
        <line class="cls-2" x1="14.34" y1="64.81" x2="16.06" y2="38.35"/>
        <line class="cls-2" x1="14.34" y1="64.81" x2="53.54" y2="5.28"/>
        <line class="cls-2" x1="17.28" y1="59.67" x2="3.32" y2="53.3"/>
        <line class="cls-2" x1="17.28" y1="59.67" x2="8.95" y2="47.91"/>
        <line class="cls-2" x1="17.28" y1="59.67" x2="14.1" y2="30.51"/>
        <line class="cls-2" x1="17.28" y1="59.67" x2="59.67" y2="11.89"/>
        <line class="cls-2" x1="3.32" y1="53.3" x2="8.95" y2="47.91"/>
        <line class="cls-2" x1="3.32" y1="53.3" x2="18.26" y2="44.72"/>
        <line class="cls-2" x1="3.32" y1="53.3" x2="18.26" y2="26.1"/>
        <line class="cls-2" x1="3.32" y1="53.3" x2="65.06" y2="10.42"/>
        <line class="cls-2" x1="8.95" y1="47.91" x2="18.26" y2="44.72"/>
        <line class="cls-2" x1="8.95" y1="47.91" x2="16.06" y2="38.35"/>
        <line class="cls-2" x1="8.95" y1="47.91" x2="29.29" y2="28.31"/>
        <line class="cls-2" x1="8.95" y1="47.91" x2="71.43" y2="4.3"/>
        <line class="cls-2" x1="18.26" y1="44.72" x2="16.06" y2="38.35"/>
        <line class="cls-2" x1="18.26" y1="44.72" x2="14.1" y2="30.51"/>
        <line class="cls-2" x1="18.26" y1="44.72" x2="29.53" y2="20.96"/>
        <line class="cls-2" x1="18.26" y1="44.72" x2="77.55" y2="5.03"/>
        <line class="cls-2" x1="16.06" y1="38.35" x2="14.1" y2="30.51"/>
        <line class="cls-2" x1="16.06" y1="38.35" x2="18.26" y2="26.1"/>
        <line class="cls-2" x1="16.06" y1="38.35" x2="27.82" y2="8.71"/>
        <line class="cls-2" x1="16.06" y1="38.35" x2="79.02" y2="18.02"/>
        <line class="cls-2" x1="14.1" y1="30.51" x2="18.26" y2="26.1"/>
        <line class="cls-2" x1="14.1" y1="30.51" x2="29.29" y2="28.31"/>
        <line class="cls-2" x1="14.1" y1="30.51" x2="39.58" y2="16.79"/>
        <line class="cls-2" x1="14.1" y1="30.51" x2="85.88" y2="15.32"/>
        <line class="cls-2" x1="18.26" y1="26.1" x2="29.29" y2="28.31"/>
        <line class="cls-2" x1="18.26" y1="26.1" x2="29.53" y2="20.96"/>
        <line class="cls-2" x1="18.26" y1="26.1" x2="45.7" y2="17.53"/>
        <line class="cls-2" x1="18.26" y1="26.1" x2="97.15" y2="8.46"/>
        <line class="cls-2" x1="29.29" y1="28.31" x2="29.53" y2="20.96"/>
        <line class="cls-2" x1="29.29" y1="28.31" x2="27.82" y2="8.71"/>
        <line class="cls-2" x1="29.29" y1="28.31" x2="46.68" y2="3.32"/>
        <line class="cls-2" x1="29.29" y1="28.31" x2="94.21" y2="22.18"/>
        <line class="cls-2" x1="29.53" y1="20.96" x2="27.82" y2="8.71"/>
        <line class="cls-2" x1="29.53" y1="20.96" x2="39.58" y2="16.79"/>
        <line class="cls-2" x1="29.53" y1="20.96" x2="53.54" y2="5.28"/>
        <line class="cls-2" x1="29.53" y1="20.96" x2="95.44" y2="28.31"/>
        <line class="cls-2" x1="27.82" y1="8.71" x2="39.58" y2="16.79"/>
        <line class="cls-2" x1="27.82" y1="8.71" x2="45.7" y2="17.53"/>
        <line class="cls-2" x1="27.82" y1="8.71" x2="59.67" y2="11.89"/>
        <line class="cls-2" x1="27.82" y1="8.71" x2="107.69" y2="25.12"/>
        <line class="cls-2" x1="39.58" y1="16.79" x2="45.7" y2="17.53"/>
        <line class="cls-2" x1="39.58" y1="16.79" x2="46.68" y2="3.32"/>
        <line class="cls-2" x1="39.58" y1="16.79" x2="65.06" y2="10.42"/>
        <line class="cls-2" x1="39.58" y1="16.79" x2="110.14" y2="31"/>
        <line class="cls-2" x1="45.7" y1="17.53" x2="46.68" y2="3.32"/>
        <line class="cls-2" x1="45.7" y1="17.53" x2="53.54" y2="5.28"/>
        <line class="cls-2" x1="45.7" y1="17.53" x2="71.43" y2="4.3"/>
        <line class="cls-2" x1="45.7" y1="17.53" x2="107.2" y2="39.09"/>
        <line class="cls-2" x1="46.68" y1="3.32" x2="53.54" y2="5.28"/>
        <line class="cls-2" x1="46.68" y1="3.32" x2="59.67" y2="11.89"/>
        <line class="cls-2" x1="46.68" y1="3.32" x2="77.55" y2="5.03"/>
        <line class="cls-2" x1="46.68" y1="3.32" x2="107.69" y2="44.48"/>
        <line class="cls-2" x1="53.54" y1="5.28" x2="59.67" y2="11.89"/>
        <line class="cls-2" x1="53.54" y1="5.28" x2="65.06" y2="10.42"/>
        <line class="cls-2" x1="53.54" y1="5.28" x2="79.02" y2="18.02"/>
        <line class="cls-2" x1="53.54" y1="5.28" x2="116.76" y2="47.66"/>
        <line class="cls-2" x1="59.67" y1="11.89" x2="65.06" y2="10.42"/>
        <line class="cls-2" x1="59.67" y1="11.89" x2="71.43" y2="4.3"/>
        <line class="cls-2" x1="59.67" y1="11.89" x2="85.88" y2="15.32"/>
        <line class="cls-2" x1="59.67" y1="11.89" x2="119.94" y2="53.3"/>
        <line class="cls-2" x1="65.06" y1="10.42" x2="71.43" y2="4.3"/>
        <line class="cls-2" x1="65.06" y1="10.42" x2="77.55" y2="5.03"/>
        <line class="cls-2" x1="65.06" y1="10.42" x2="97.15" y2="8.46"/>
        <line class="cls-2" x1="65.06" y1="10.42" x2="117.25" y2="59.67"/>
        <line class="cls-2" x1="71.43" y1="4.3" x2="77.55" y2="5.03"/>
        <line class="cls-2" x1="71.43" y1="4.3" x2="79.02" y2="18.02"/>
        <line class="cls-2" x1="71.43" y1="4.3" x2="94.21" y2="22.18"/>
        <line class="cls-2" x1="71.43" y1="4.3" x2="119.45" y2="65.79"/>
        <line class="cls-2" x1="77.55" y1="5.03" x2="79.02" y2="18.02"/>
        <line class="cls-2" x1="77.55" y1="5.03" x2="85.88" y2="15.32"/>
        <line class="cls-2" x1="77.55" y1="5.03" x2="95.44" y2="28.31"/>
        <line class="cls-2" x1="77.55" y1="5.03" x2="111.37" y2="70.45"/>
        <line class="cls-2" x1="79.02" y1="18.02" x2="85.88" y2="15.32"/>
        <line class="cls-2" x1="79.02" y1="18.02" x2="97.15" y2="8.46"/>
        <line class="cls-2" x1="79.02" y1="18.02" x2="107.69" y2="25.12"/>
        <line class="cls-2" x1="79.02" y1="18.02" x2="107.69" y2="74.86"/>
        <line class="cls-2" x1="85.88" y1="15.32" x2="97.15" y2="8.46"/>
        <line class="cls-2" x1="85.88" y1="15.32" x2="94.21" y2="22.18"/>
        <line class="cls-2" x1="85.88" y1="15.32" x2="110.14" y2="31"/>
        <line class="cls-2" x1="85.88" y1="15.32" x2="110.63" y2="81.96"/>
        <line class="cls-2" x1="97.15" y1="8.46" x2="94.21" y2="22.18"/>
        <line class="cls-2" x1="97.15" y1="8.46" x2="95.44" y2="28.31"/>
        <line class="cls-2" x1="97.15" y1="8.46" x2="107.2" y2="39.09"/>
        <line class="cls-2" x1="97.15" y1="8.46" x2="117.25" y2="59.67"/>
        <line class="cls-2" x1="97.15" y1="8.46" x2="113.08" y2="90.05"/>
        <line class="cls-2" x1="94.21" y1="22.18" x2="95.44" y2="28.31"/>
        <line class="cls-2" x1="94.21" y1="22.18" x2="107.69" y2="25.12"/>
        <line class="cls-2" x1="94.21" y1="22.18" x2="107.69" y2="44.48"/>
        <line class="cls-2" x1="94.21" y1="22.18" x2="119.45" y2="65.79"/>
        <line class="cls-2" x1="94.21" y1="22.18" x2="100.58" y2="88.82"/>
        <line class="cls-2" x1="95.44" y1="28.31" x2="107.69" y2="25.12"/>
        <line class="cls-2" x1="95.44" y1="28.31" x2="110.14" y2="31"/>
        <line class="cls-2" x1="95.44" y1="28.31" x2="116.76" y2="47.66"/>
        <line class="cls-2" x1="95.44" y1="28.31" x2="111.37" y2="70.45"/>
        <line class="cls-2" x1="96.26" y1="27.81" x2="96.26" y2="91.81"/>
        <line class="cls-2" x1="107.69" y1="25.12" x2="110.14" y2="31"/>
        <line class="cls-2" x1="107.69" y1="25.12" x2="107.2" y2="39.09"/>
        <line class="cls-2" x1="107.69" y1="25.12" x2="119.94" y2="53.3"/>
        <line class="cls-2" x1="108.26" y1="25.81" x2="108.26" y2="74.81"/>
        <line class="cls-2" x1="107.69" y1="25.12" x2="101.56" y2="105.98"/>
        <line class="cls-2" x1="110.14" y1="31" x2="107.2" y2="39.09"/>
        <line class="cls-2" x1="110.14" y1="31" x2="107.69" y2="44.48"/>
        <line class="cls-2" x1="110.14" y1="31" x2="117.25" y2="59.67"/>
        <line class="cls-2" x1="110.26" y1="29.81" x2="110.75" y2="81.81"/>
        <line class="cls-2" x1="110.14" y1="31" x2="92.74" y2="104.51"/>
        <line class="cls-2" x1="107.2" y1="39.09" x2="107.69" y2="44.48"/>
        <line class="cls-2" x1="107.2" y1="39.09" x2="116.76" y2="47.66"/>
        <line class="cls-2" x1="107.2" y1="39.09" x2="119.45" y2="65.79"/>
        <line class="cls-2" x1="107.2" y1="39.09" x2="113.08" y2="90.05"/>
        <line class="cls-2" x1="107.2" y1="39.09" x2="83.19" y2="98.87"/>
        <line class="cls-2" x1="107.69" y1="44.48" x2="116.76" y2="47.66"/>
        <line class="cls-2" x1="107.69" y1="44.48" x2="119.94" y2="53.3"/>
        <line class="cls-2" x1="107.69" y1="44.48" x2="111.37" y2="70.45"/>
        <line class="cls-2" x1="107.69" y1="44.48" x2="100.58" y2="88.82"/>
        <line class="cls-2" x1="107.69" y1="44.48" x2="82.21" y2="109.41"/>
        <line class="cls-2" x1="116.76" y1="47.66" x2="119.94" y2="53.3"/>
        <line class="cls-2" x1="116.76" y1="47.66" x2="117.25" y2="59.67"/>
        <line class="cls-2" x1="116.76" y1="47.66" x2="107.69" y2="74.86"/>
        <line class="cls-2" x1="116.76" y1="47.66" x2="95.44" y2="91.03"/>
        <line class="cls-2" x1="116.76" y1="47.66" x2="77.55" y2="114.55"/>
        <line class="cls-2" x1="119.94" y1="53.3" x2="110.63" y2="81.96"/>
        <line class="cls-2" x1="119.94" y1="53.3" x2="101.56" y2="105.98"/>
        <line class="cls-2" x1="119.94" y1="53.3" x2="70.69" y2="110.88"/>
        <path class="cls-1" d="m105,55.5c5.39,0,5.39,8.33,0,8.33s-5.39-8.33,0-8.33Z"/>
        <path class="cls-3" d="m111.37,68.49c2.45,0,2.45,3.92,0,3.92-2.7,0-2.7-3.92,0-3.92Z"/>
        <path class="cls-3" d="m107.69,72.65c2.94,0,2.94,4.41,0,4.41s-2.94-4.41,0-4.41Z"/>
        <path class="cls-3" d="m110.63,79.51c3.19,0,3.19,4.9,0,4.9s-3.19-4.9,0-4.9Z"/>
        <path class="cls-3" d="m113.08,87.11c3.92,0,3.92,5.88,0,5.88s-3.92-5.88,0-5.88Z"/>
        <path class="cls-3" d="m100.58,87.6c1.47,0,1.47,2.45,0,2.45-1.72,0-1.72-2.45,0-2.45Z"/>
        <path class="cls-3" d="m95.44,89.31c2.21,0,2.21,3.43,0,3.43s-2.21-3.43,0-3.43Z"/>
        <path class="cls-3" d="m101.56,104.02c2.45,0,2.45,3.92,0,3.92-2.7,0-2.7-3.92,0-3.92Z"/>
        <path class="cls-3" d="m92.74,102.3c2.94,0,2.94,4.41,0,4.41s-2.94-4.41,0-4.41Z"/>
        <path class="cls-3" d="m83.19,96.42c3.19,0,3.19,4.9,0,4.9s-3.19-4.9,0-4.9Z"/>
        <path class="cls-3" d="m82.21,106.47c3.92,0,3.92,5.88,0,5.88s-3.92-5.88,0-5.88Z"/>
        <path class="cls-3" d="m77.55,113.33c1.47,0,1.47,2.45,0,2.45-1.72,0-1.72-2.45,0-2.45Z"/>
        <path class="cls-3" d="m70.69,109.16c2.21,0,2.21,3.43,0,3.43s-2.21-3.43,0-3.43Z"/>
        <path class="cls-3" d="m64.81,104.51c2.45,0,2.45,3.92,0,3.92-2.7,0-2.7-3.92,0-3.92Z"/>
        <path class="cls-3" d="m59.42,109.65c2.94,0,2.94,4.41,0,4.41s-2.94-4.41,0-4.41Z"/>
        <path class="cls-3" d="m52.56,116.76c3.19,0,3.19,4.9,0,4.9s-3.19-4.9,0-4.9Z"/>
        <path class="cls-3" d="m49.38,103.04c3.92,0,3.92,5.88,0,5.88s-3.92-5.88,0-5.88Z"/>
        <path class="cls-1" d="m49.38,97.4c11.03-.25,11.03,17.4,0,17.15-11.27.25-11.27-17.4,0-17.15Z"/>
        <path class="cls-3" d="m45.7,100.58c1.47,0,1.47,2.45,0,2.45-1.72,0-1.72-2.45,0-2.45Z"/>
        <path class="cls-3" d="m34.19,111.12c2.21,0,2.21,3.43,0,3.43s-2.21-3.43,0-3.43Z"/>
        <path class="cls-3" d="m31.74,102.79c2.45,0,2.45,3.92,0,3.92-2.7,0-2.7-3.92,0-3.92Z"/>
        <path class="cls-3" d="m32.96,92.01c2.94,0,2.94,4.41,0,4.41s-2.94-4.41,0-4.41Z"/>
        <path class="cls-3" d="m24.39,93.23c3.19,0,3.19,4.9,0,4.9s-3.19-4.9,0-4.9Z"/>
        <path class="cls-3" d="m17.28,91.03c3.92,0,3.92,5.88,0,5.88s-3.92-5.88,0-5.88Z"/>
        <path class="cls-3" d="m16.3,86.13c1.47,0,1.47,2.45,0,2.45-1.72,0-1.72-2.45,0-2.45Z"/>
        <path class="cls-3" d="m20.47,77.31c2.21,0,2.21,3.43,0,3.43s-2.21-3.43,0-3.43Z"/>
        <path class="cls-3" d="m13.61,74.12c2.45,0,2.45,3.92,0,3.92-2.7,0-2.7-3.92,0-3.92Z"/>
        <path class="cls-3" d="m2.58,70.69c2.94,0,2.94,4.41,0,4.41s-2.94-4.41,0-4.41Z"/>
        <path class="cls-3" d="m14.34,62.36c3.19,0,3.19,4.9,0,4.9s-3.19-4.9,0-4.9Z"/>
        <path class="cls-3" d="m17.28,56.73c3.92,0,3.92,5.88,0,5.88s-3.92-5.88,0-5.88Z"/>
        <path class="cls-3" d="m3.32,52.07c1.47,0,1.47,2.45,0,2.45-1.72,0-1.72-2.45,0-2.45Z"/>
        <path class="cls-3" d="m8.95,46.19c2.21,0,2.21,3.43,0,3.43s-2.21-3.43,0-3.43Z"/>
        <path class="cls-3" d="m18.26,42.76c2.45,0,2.45,3.92,0,3.92-2.7,0-2.7-3.92,0-3.92Z"/>
        <path class="cls-3" d="m16.06,36.15c2.94,0,2.94,4.41,0,4.41s-2.94-4.41,0-4.41Z"/>
        <path class="cls-3" d="m14.1,28.06c3.19,0,3.19,4.9,0,4.9s-3.19-4.9,0-4.9Z"/>
        <path class="cls-1" d="m14.1,22.67c10.29-.25,10.29,15.93,0,15.68-10.29,0-10.29-15.93,0-15.68Z"/>
        <path class="cls-3" d="m18.26,23.16c3.92,0,3.92,5.88,0,5.88s-3.92-5.88,0-5.88Z"/>
        <path class="cls-3" d="m29.29,27.08c1.47,0,1.47,2.45,0,2.45-1.72,0-1.72-2.45,0-2.45Z"/>
        <path class="cls-3" d="m29.53,19.24c2.21,0,2.21,3.43,0,3.43s-2.21-3.43,0-3.43Z"/>
        <path class="cls-3" d="m27.82,6.75c2.45,0,2.45,3.92,0,3.92-2.7,0-2.7-3.92,0-3.92Z"/>
        <path class="cls-3" d="m39.58,14.59c2.94,0,2.94,4.41,0,4.41s-2.94-4.41,0-4.41Z"/>
        <path class="cls-3" d="m45.7,15.08c3.19,0,3.19,4.9,0,4.9s-3.19-4.9,0-4.9Z"/>
        <path class="cls-3" d="m46.68.38c3.92,0,3.92,5.88,0,5.88s-3.92-5.88,0-5.88Z"/>
        <path class="cls-3" d="m53.54,4.05c1.47,0,1.47,2.45,0,2.45-1.72,0-1.72-2.45,0-2.45Z"/>
        <path class="cls-3" d="m59.67,10.18c2.21,0,2.21,3.43,0,3.43s-2.21-3.43,0-3.43Z"/>
        <path class="cls-3" d="m65.06,8.46c2.45,0,2.45,3.92,0,3.92-2.7,0-2.7-3.92,0-3.92Z"/>
        <path class="cls-3" d="m71.43,2.09c2.94,0,2.94,4.41,0,4.41s-2.94-4.41,0-4.41Z"/>
        <path class="cls-3" d="m77.55,2.58c3.19,0,3.19,4.9,0,4.9s-3.19-4.9,0-4.9Z"/>
        <path class="cls-3" d="m79.02,15.08c3.92,0,3.92,5.88,0,5.88s-3.92-5.88,0-5.88Z"/>
        <path class="cls-3" d="m85.88,14.1c1.47,0,1.47,2.45,0,2.45-1.72,0-1.72-2.45,0-2.45Z"/>
        <path class="cls-3" d="m97.15,6.75c2.21,0,2.21,3.43,0,3.43s-2.21-3.43,0-3.43Z"/>
        <path class="cls-3" d="m94.21,20.22c2.45,0,2.45,3.92,0,3.92-2.7,0-2.7-3.92,0-3.92Z"/>
        <path class="cls-3" d="m95.44,26.1c2.94,0,2.94,4.41,0,4.41s-2.94-4.41,0-4.41Z"/>
        <path class="cls-1" d="m95.44,21.45c8.82-.25,8.82,13.97,0,13.72-9.07,0-9.07-13.97,0-13.72Z"/>
        <path class="cls-3" d="m107.69,22.67c3.19,0,3.19,4.9,0,4.9s-3.19-4.9,0-4.9Z"/>
        <path class="cls-3" d="m110.14,28.06c3.92,0,3.92,5.88,0,5.88s-3.92-5.88,0-5.88Z"/>
        <path class="cls-3" d="m107.2,37.86c1.47,0,1.47,2.45,0,2.45-1.72,0-1.72-2.45,0-2.45Z"/>
        <path class="cls-3" d="m107.69,42.76c2.21,0,2.21,3.43,0,3.43s-2.21-3.43,0-3.43Z"/>
        <path class="cls-3" d="m116.76,45.7c2.45,0,2.45,3.92,0,3.92-2.7,0-2.7-3.92,0-3.92Z"/>
      </g>
      <path class="cls-3" d="m120.4,59.38c1.51,0,1.51,2.51,0,2.51-1.76,0-1.76-2.51,0-2.51Z"/>
    </g>
  </g>
</svg>