<svg xmlns="http://www.w3.org/2000/svg" viewBox="0 0 1536 922" role="img" aria-label="AnthroViz AI header"><rect width="1536" height="922" fill="#000"/><g fill="#E1E4E8" stroke="#F6F7F9" stroke-width="2" opacity=".96"><path d="M0 205 L55 159 L66 63 L103 37 L148 42 L175 78 L177 156 L154 190 L360 223 L326 245 L157 233 L171 351 L161 523 L119 523 L106 585 L78 523 L41 523 L34 355 L0 273 Z"/><path d="M500 198 L610 168 L706 176 L735 132 L725 63 L744 37 L790 40 L817 69 L811 137 L842 175 L953 185 L998 165 L1036 198 L950 226 L842 214 L820 310 L841 526 L785 526 L749 330 L713 526 L660 526 L684 310 L653 221 L566 236 Z"/><path d="M1180 130 L1214 126 L1250 149 L1341 170 L1368 137 L1360 64 L1386 39 L1432 38 L1460 65 L1458 132 L1482 172 L1492 526 L1450 526 L1408 417 L1367 526 L1323 526 L1344 248 L1236 222 L1180 169 Z"/></g><g transform="translate(425 272)"><path d="M0 382 L210 0 L276 0 L402 382 L296 382 L203 110 L89 382 Z" fill="#000" stroke="#F6F7F9" stroke-width="6"/><path d="M244 0 L334 0 L445 293 L567 0 L663 0 L472 382 L386 382 Z" fill="#B3123F" stroke="#F6F7F9" stroke-width="6"/><path d="M278 0 L334 0 L392 151 L355 252 Z" fill="#D8DDE2" opacity=".88"/></g><g font-family="Montserrat, Arial, sans-serif" text-anchor="middle"><text x="768" y="807" font-size="82" font-weight="400" letter-spacing="78"><tspan fill="#F6F7F9">ANTHR</tspan><tspan fill="#B3123F">VIZ</tspan></text><text x="1410" y="802" font-size="38" fill="#F6F7F9">AI</text><text x="768" y="890" font-size="38" font-weight="300" letter-spacing="22" fill="#F6F7F9">VISUAL ANTHROPOMETRY INTELLIGENCE</text></g><g transform="translate(787 742)"><circle cx="58" cy="58" r="42" fill="none" stroke="#0D0D0D" stroke-width="17" stroke-dasharray="7 5"/><circle cx="58" cy="58" r="31" fill="#000"/></g></svg>