<?xml version="1.0" encoding="UTF-8"?>
<svg xmlns="http://www.w3.org/2000/svg" viewBox="0 0 2048 1365" width="2048" height="1365">
  <title>AnthroViz pose-sequence silhouettes</title>
  <desc>Vectorized silhouettes extracted from the provided pose-sequence header image. Fill color set to logo silver.</desc>
  <g id="pose-sequence-silhouettes" fill="#D8DDE2" fill-rule="evenodd">
    <path id="silhouette-1" d="M 116.0 419.0 L 124.0 438.0 L 228.0 473.0 L 287.0 511.0 L 296.0 536.0 L 301.0 591.0 L 276.0 750.0 L 246.0 879.0 L 218.0 899.0 L 202.0 902.0 L 269.0 900.0 L 298.0 784.0 L 337.0 680.0 L 347.0 685.0 L 371.0 743.0 L 412.0 878.0 L 421.0 884.0 L 420.0 900.0 L 485.0 902.0 L 443.0 878.0 L 386.0 644.0 L 383.0 550.0 L 388.0 521.0 L 399.0 507.0 L 453.0 473.0 L 550.0 439.0 L 564.0 417.0 L 555.0 414.0 L 535.0 421.0 L 533.0 408.0 L 508.0 438.0 L 458.0 451.0 L 408.0 475.0 L 364.0 485.0 L 356.0 482.0 L 356.0 475.0 L 370.0 453.0 L 368.0 419.0 L 358.0 404.0 L 345.0 398.0 L 328.0 400.0 L 312.0 419.0 L 309.0 449.0 L 323.0 474.0 L 320.0 483.0 L 278.0 475.0 L 235.0 455.0 L 177.0 439.0 L 152.0 409.0 L 149.0 422.0 L 130.0 416.0 Z"/>
    <path id="silhouette-2" d="M 769.0 398.0 L 744.0 400.0 L 731.0 414.0 L 729.0 443.0 L 742.0 468.0 L 739.0 477.0 L 673.0 461.0 L 655.0 450.0 L 641.0 450.0 L 641.0 458.0 L 627.0 460.0 L 641.0 474.0 L 665.0 475.0 L 683.0 486.0 L 717.0 497.0 L 717.0 561.0 L 703.0 645.0 L 645.0 861.0 L 647.0 876.0 L 618.0 896.0 L 604.0 899.0 L 606.0 902.0 L 673.0 901.0 L 673.0 882.0 L 680.0 879.0 L 720.0 753.0 L 743.0 699.0 L 748.0 700.0 L 783.0 779.0 L 792.0 818.0 L 814.0 864.0 L 815.0 875.0 L 825.0 881.0 L 823.0 901.0 L 881.0 901.0 L 847.0 874.0 L 847.0 858.0 L 808.0 733.0 L 785.0 629.0 L 781.0 588.0 L 794.0 497.0 L 790.0 484.0 L 776.0 472.0 L 776.0 462.0 L 789.0 443.0 L 789.0 418.0 L 784.0 408.0 Z"/>
    <path id="silhouette-3" d="M 1058.0 397.0 L 1043.0 405.0 L 1035.0 423.0 L 1035.0 443.0 L 1047.0 459.0 L 1046.0 471.0 L 1024.0 492.0 L 997.0 487.0 L 998.0 496.0 L 991.0 497.0 L 996.0 512.0 L 1027.0 516.0 L 1050.0 582.0 L 1049.0 613.0 L 1043.0 629.0 L 1042.0 671.0 L 1028.0 740.0 L 1004.0 793.0 L 975.0 895.0 L 969.0 901.0 L 1034.0 901.0 L 1015.0 885.0 L 1013.0 877.0 L 1047.0 808.0 L 1084.0 709.0 L 1089.0 710.0 L 1108.0 776.0 L 1111.0 822.0 L 1120.0 875.0 L 1125.0 880.0 L 1123.0 901.0 L 1205.0 901.0 L 1179.0 893.0 L 1155.0 877.0 L 1139.0 665.0 L 1118.0 568.0 L 1111.0 506.0 L 1221.0 500.0 L 1231.0 488.0 L 1220.0 488.0 L 1208.0 480.0 L 1199.0 484.0 L 1152.0 483.0 L 1082.0 472.0 L 1081.0 467.0 L 1095.0 457.0 L 1097.0 419.0 L 1083.0 400.0 Z"/>
    <path id="silhouette-4" d="M 1419.0 397.0 L 1403.0 408.0 L 1398.0 420.0 L 1397.0 443.0 L 1411.0 462.0 L 1407.0 476.0 L 1379.0 488.0 L 1312.0 483.0 L 1284.0 491.0 L 1302.0 503.0 L 1322.0 501.0 L 1347.0 509.0 L 1391.0 512.0 L 1402.0 577.0 L 1389.0 647.0 L 1383.0 742.0 L 1359.0 805.0 L 1341.0 875.0 L 1331.0 895.0 L 1318.0 901.0 L 1380.0 901.0 L 1371.0 895.0 L 1369.0 880.0 L 1388.0 846.0 L 1438.0 708.0 L 1444.0 709.0 L 1458.0 732.0 L 1476.0 781.0 L 1500.0 879.0 L 1506.0 881.0 L 1505.0 901.0 L 1580.0 901.0 L 1578.0 896.0 L 1562.0 894.0 L 1534.0 876.0 L 1537.0 868.0 L 1480.0 635.0 L 1474.0 581.0 L 1476.0 509.0 L 1533.0 493.0 L 1554.0 494.0 L 1565.0 485.0 L 1546.0 471.0 L 1506.0 481.0 L 1446.0 474.0 L 1444.0 468.0 L 1456.0 461.0 L 1459.0 445.0 L 1456.0 412.0 L 1443.0 399.0 Z"/>
    <path id="silhouette-5" d="M 1777.0 397.0 L 1766.0 402.0 L 1755.0 417.0 L 1752.0 439.0 L 1766.0 462.0 L 1762.0 473.0 L 1700.0 490.0 L 1631.0 491.0 L 1626.0 498.0 L 1607.0 504.0 L 1621.0 515.0 L 1724.0 512.0 L 1732.0 519.0 L 1740.0 549.0 L 1741.0 584.0 L 1727.0 666.0 L 1722.0 753.0 L 1705.0 838.0 L 1704.0 881.0 L 1667.0 902.0 L 1734.0 902.0 L 1732.0 886.0 L 1739.0 882.0 L 1752.0 790.0 L 1782.0 671.0 L 1788.0 674.0 L 1792.0 704.0 L 1815.0 779.0 L 1835.0 882.0 L 1840.0 885.0 L 1838.0 901.0 L 1911.0 902.0 L 1909.0 896.0 L 1897.0 895.0 L 1871.0 879.0 L 1872.0 863.0 L 1844.0 731.0 L 1827.0 544.0 L 1841.0 512.0 L 1955.0 515.0 L 1969.0 512.0 L 1973.0 505.0 L 1951.0 497.0 L 1950.0 491.0 L 1928.0 495.0 L 1862.0 489.0 L 1836.0 478.0 L 1801.0 472.0 L 1799.0 465.0 L 1812.0 443.0 L 1811.0 420.0 L 1800.0 402.0 Z"/>
  </g>
</svg>